<?xml version="1.0" encoding="UTF-8" standalone="no"?>
<svg
   xmlns:dc="http://purl.org/dc/elements/1.1/"
   xmlns:cc="http://creativecommons.org/ns#"
   xmlns:rdf="http://www.w3.org/1999/02/22-rdf-syntax-ns#"
   xmlns:svg="http://www.w3.org/2000/svg"
   xmlns="http://www.w3.org/2000/svg"
   xmlns:sodipodi="http://sodipodi.sourceforge.net/DTD/sodipodi-0.dtd"
   xmlns:inkscape="http://www.inkscape.org/namespaces/inkscape"
   width="48"
   height="48"
   viewBox="0 0 12.7 12.7"
   version="1.1"
   id="svg8"
   inkscape:version="1.0 (4035a4fb49, 2020-05-01)"
   sodipodi:docname="icon_light.svg">
  <defs
     id="defs2" />
  <sodipodi:namedview
     units="px"
     id="base"
     pagecolor="#ffffff"
     bordercolor="#666666"
     borderopacity="1.0"
     inkscape:pageopacity="0.0"
     inkscape:pageshadow="2"
     inkscape:zoom="4.64"
     inkscape:cx="1.691942"
     inkscape:cy="60.004454"
     inkscape:document-units="px"
     inkscape:current-layer="layer1"
     inkscape:document-rotation="0"
     showgrid="true"
     inkscape:snap-nodes="true"
     inkscape:snap-others="true"
     inkscape:object-paths="true"
     inkscape:snap-bbox="true"
     inkscape:snap-global="true"
     inkscape:snap-grids="false"
     inkscape:window-width="1920"
     inkscape:window-height="1017"
     inkscape:window-x="1072"
     inkscape:window-y="-8"
     inkscape:window-maximized="1">
    <inkscape:grid
       type="xygrid"
       id="grid913"
       dotted="true" />
  </sodipodi:namedview>
  <metadata
     id="metadata5">
    <rdf:RDF>
      <cc:Work
         rdf:about="">
        <dc:format>image/svg+xml</dc:format>
        <dc:type
           rdf:resource="http://purl.org/dc/dcmitype/StillImage" />
        <dc:title></dc:title>
      </cc:Work>
    </rdf:RDF>
  </metadata>
  <g
     inkscape:label="Layer 1"
     inkscape:groupmode="layer"
     id="layer1">
    <path
       style="fill:#5a5b5c;fill-opacity:1;stroke:none;stroke-width:0;stroke-miterlimit:4;stroke-dasharray:none;stroke-opacity:1"
       id="path840"
       sodipodi:type="arc"
       sodipodi:cx="6.3501492"
       sodipodi:cy="1.587417"
       sodipodi:rx="6.3499999"
       sodipodi:ry="1.5875"
       sodipodi:start="1.3613568"
       sodipodi:end="0.52359878"
       sodipodi:arc-type="slice"
       d="M 7.6703885,3.1402263 A 6.3499999,1.5875 0 0 1 0.54913561,2.2331114 6.3499999,1.5875 0 0 1 2.6177128,0.30310255 6.3499999,1.5875 0 0 1 10.599128,0.40767461 6.3499999,1.5875 0 0 1 11.84941,2.381167 L 6.3501492,1.587417 Z" />
    <path
       style="opacity:1;fill:#5a5b5c;fill-opacity:1;stroke:none;stroke-width:0.264583;stroke-opacity:1"
       id="path875"
       sodipodi:type="arc"
       sodipodi:cx="7.1985674"
       sodipodi:cy="2.0026414"
       sodipodi:rx="6.3499999"
       sodipodi:ry="1.5875"
       sodipodi:start="0.52359878"
       sodipodi:end="1.3613568"
       sodipodi:arc-type="slice"
       d="M 12.697829,2.7963914 A 6.3499999,1.5875 0 0 1 8.5188067,3.5554507 L 7.1985674,2.0026414 Z" />
    <path
       sodipodi:nodetypes="ccccsccsssc"
       d="m 3.8836971e-4,2.0999979 c 0,0.7525705 5.027e-4,2.5130265 5.292e-4,2.5166421 -4.23e-5,8.731e-4 -4.763e-4,0.00172 -5.292e-4,0.00259 -0.00193,0.044534 0.00336,0.089195 0.0165370003,0.1338447 0.05273,0.1786171 0.2273972,0.3569462 0.5322673,0.5281332 C 1.7632922,5.9629363 4.7450789,6.2720714 7.6674099,6.1760468 7.6667744,5.7150172 7.6645652,4.5067431 7.6645017,3.6694112 4.7338516,3.8243891 1.767811,3.4467556 0.54919217,2.7624897 0.39675697,2.6768962 0.27687767,2.589403 0.18849077,2.501007 0.10010267,2.4126108 0.04329087,2.3231478 0.01692487,2.2338398 c -0.01318,-0.044654 -0.018476,-0.089315 -0.0165365003,-0.1338419 z"
       style="opacity:1;fill:#5a5b5c;fill-opacity:1;stroke:none;stroke-width:0;stroke-miterlimit:4;stroke-dasharray:none;stroke-opacity:1"
       id="path840-2-3-7" />
    <path
       d="M 12.698322,3.3257627 C 11.798498,3.7153974 10.279567,3.9913475 8.5192482,4.0848896 V 6.6035994 C 10.279567,6.5100564 11.798498,6.2341072 12.698322,5.844472 Z"
       style="opacity:1;fill:#5a5b5c;fill-opacity:1;stroke:none;stroke-width:0.264583;stroke-opacity:1"
       id="path875-8-8-4" />
    <path
       sodipodi:nodetypes="ccccsccsssc"
       d="m 3.8849007e-4,5.1358271 c 0,0.7525705 5.027e-4,2.5130265 5.292e-4,2.5166421 -4.24e-5,8.731e-4 -4.763e-4,0.00172 -5.292e-4,0.00259 -0.00193,0.044534 0.00336,0.089195 0.0165359999,0.1338447 0.05273,0.1786171 0.2273972,0.3569462 0.5322673,0.5281332 C 1.7632915,8.9987655 4.7450781,9.3079009 7.6674092,9.211876 7.6667742,8.7508464 7.6646092,7.5425723 7.6645092,6.7052404 4.7338517,6.8602183 1.7678112,6.4825848 0.54919219,5.7983189 0.39675709,5.7127254 0.27687779,5.6252322 0.18849079,5.5368362 0.10010279,5.44844 0.04329089,5.3589769 0.01692489,5.2696689 0.00374499,5.225015 -0.00155141,5.1803541 3.8849007e-4,5.1358271 Z"
       style="opacity:1;fill:#5a5b5c;fill-opacity:1;stroke:none;stroke-width:0;stroke-miterlimit:4;stroke-dasharray:none;stroke-opacity:1"
       id="path840-2-3-0" />
    <path
       d="M 12.698321,6.3615919 C 11.798497,6.7512266 10.279566,7.0271767 8.5192486,7.1207188 V 9.6394281 C 10.279566,9.5458861 11.798497,9.2699364 12.698321,8.8803012 Z"
       style="opacity:1;fill:#5a5b5c;fill-opacity:1;stroke:none;stroke-width:0.264583;stroke-opacity:1"
       id="path875-8-8-3" />
    <path
       sodipodi:nodetypes="ccccsccsssc"
       d="m 3.8135006e-4,8.1716562 c 0,0.7525705 5.03e-4,2.5130268 5.29e-4,2.5166428 -4.2e-5,8.73e-4 -4.76e-4,0.0017 -5.29e-4,0.0026 -0.0019,0.04453 0.0034,0.0892 0.0165399999,0.133845 0.05273,0.178617 0.227397,0.356946 0.532267,0.528133 1.21410005,0.681728 4.19588605,0.990863 7.11821705,0.894839 -6.35e-4,-0.46103 -0.0028,-1.669304 -0.0029,-2.5066365 -2.930651,0.1549779 -5.896691,-0.2226556 -7.11531005,-0.9069215 -0.152435,-0.085594 -0.272315,-0.1730867 -0.360701,-0.2614827 -0.08839,-0.088396 -0.1452,-0.1778592 -0.171566,-0.2671672 -0.01318,-0.044654 -0.01848,-0.089315 -0.0165399999,-0.1338419 z"
       style="opacity:1;fill:#5a5b5c;fill-opacity:1;stroke:none;stroke-width:0;stroke-miterlimit:4;stroke-dasharray:none;stroke-opacity:1"
       id="path840-2-3-5" />
    <path
       d="m 12.698315,9.397421 c -0.899824,0.3896347 -2.418755,0.665585 -4.1790736,0.759127 v 2.51871 c 1.7603186,-0.09354 3.2792496,-0.369492 4.1790736,-0.759127 z"
       style="opacity:1;fill:#5a5b5c;fill-opacity:1;stroke:none;stroke-width:0.264583;stroke-opacity:1"
       id="path875-8-8-8" />
    <path
       style="fill:#5a5b5c;fill-opacity:1;stroke:none;stroke-width:0.05;stroke-linecap:butt;stroke-linejoin:miter;stroke-miterlimit:4;stroke-dasharray:none;stroke-opacity:1"
       d="M 12.266137,2.4396688 12.701282,2.4954809 12.7,2.1166666 c -0.151916,0.1935256 -0.433863,0.3230022 -0.433863,0.3230022"
       id="path1102"
       sodipodi:nodetypes="cccc" />
  </g>
</svg>
